Patient4_TMGait_0pt4_02_left_25_GRF.mot
version=1
nRows=71
nColumns=19
inDegrees=no
endheader
time	F1x	F1y	F1z	M1x	M1y	M1z	F2x	F2y	F2z	M2x	M2y	M2z	EC1x	EC1y	EC1z	EC2x	EC2y	EC2z
33.62	-2.1513	6.165	-1.0014	-0.70779	-2.3884	7.968	-12.0744	690.9679	-63.7565	252.9733	74.599	791.6118	-0.0592	0.0182	-0.0073	-0.0462	0.0165	0.9585
33.6335	-1.3541	4.8394	-0.65968	-0.70431	-1.6381	6.1477	-13.685	705.6844	-60.837	258.7705	71.9485	800.2151	-0.0592	0.0182	-0.0073	-0.0462	0.0165	0.9585
33.647	-0.71769	3.7524	-0.36727	-0.718	-1.0037	4.6583	-14.66	723.2719	-57.8737	265.8267	69.0173	811.8514	-0.0592	0.0182	-0.0073	-0.0462	0.0165	0.9585
33.6605	-0.25888	2.9592	-0.14385	-0.74414	-0.51914	3.5695	-14.9074	742.4617	-55.0628	273.6633	65.9895	825.439	-0.0592	0.0182	-0.0073	-0.0462	0.0165	0.9585
33.674	0.035123	2.4278	0.023746	-0.77389	-0.19341	2.8384	-14.4224	761.4882	-52.5492	281.5979	63.0275	839.1502	-0.0592	0.0182	-0.0073	-0.0462	0.0165	0.9585
33.6875	0.18263	2.1025	0.14018	-0.79989	-0.0040339	2.3961	-13.2203	778.3955	-50.4211	288.8711	60.2309	850.8416	-0.0592	0.0182	-0.0073	-0.0462	0.0165	0.9585
33.701	0.22157	1.8925	0.2258	-0.80656	0.072869	2.122	-11.2967	791.4444	-48.6448	294.808	57.5632	858.5548	-0.0592	0.0182	-0.0073	-0.0462	0.0165	0.9585
33.7145	0.18529	1.7017	0.2853	-0.77727	0.072083	1.8966	-8.6961	799.4826	-47.1105	298.9527	54.9183	860.9831	-0.0592	0.0182	-0.0073	-0.0462	0.0165	0.9585
33.728	0.098068	1.4341	0.32836	-0.69244	0.016392	1.5957	-5.5202	802.1872	-45.6531	301.1559	52.1531	857.7588	-0.0592	0.0182	-0.0073	-0.0462	0.0165	0.9585
33.7415	-0.017148	0.99525	0.36033	-0.53117	-0.076671	1.0912	-1.9263	800.1386	-44.1636	301.5913	49.1983	849.5395	-0.0592	0.0182	-0.0073	-0.0462	0.0165	0.9585
33.755	-0.15034	0.30158	0.38454	-0.27487	-0.19253	0.28407	1.9121	794.5914	-42.6399	300.6666	46.098	837.7436	-0.0592	0.0182	-0.0073	-0.0462	0.0165	0.9585
33.7685	-0.28286	-0.71554	0.40684	0.09283	-0.31563	-0.90986	5.8329	787.0834	-41.2425	298.8831	43.0604	824.1187	-0.0592	0.0182	-0.0073	-0.0462	0.0165	0.9585
33.782	-0.39756	-2.0493	0.41621	0.56943	-0.41419	-2.4858	9.6768	779.1106	-40.2054	296.7234	40.3723	810.3779	-0.0592	0.0182	-0.0073	-0.0462	0.0165	0.9585
33.7955	-0.44761	-3.6197	0.40365	1.1256	-0.45029	-4.3475	13.3233	771.838	-39.7691	294.5575	38.3212	797.859	-0.0592	0.0182	-0.0073	-0.0462	0.0165	0.9585
33.809	-0.36135	-5.2027	0.34621	1.6812	-0.3706	-6.2193	16.6756	765.9127	-40.0935	292.5842	37.1149	787.3254	-0.0592	0.0182	-0.0073	-0.0462	0.0165	0.9585
33.8225	-0.055329	-6.3663	0.21974	2.0865	-0.11851	-7.5848	19.6701	761.4575	-41.224	290.8421	36.8377	778.9479	-0.0592	0.0182	-0.0073	-0.0462	0.0165	0.9585
33.836	0.5909	-6.4247	-0.016176	2.1059	0.38583	-7.6433	22.2698	758.2438	-43.0553	289.268	37.4096	772.5059	-0.0592	0.0182	-0.0073	-0.0462	0.0165	0.9585
33.8495	1.682	-4.3996	-0.40687	1.4049	1.2221	-5.233	24.454	755.7579	-45.409	287.7117	38.6669	767.4637	-0.0592	0.0182	-0.0073	-0.0462	0.0165	0.9585
33.863	3.3132	0.97292	-0.99088	-0.44924	2.4578	1.143	26.1964	753.2549	-48.0659	285.9502	40.4044	763.0161	-0.0592	0.0182	-0.0073	-0.0462	0.0165	0.9585
33.8765	5.5108	11.1646	-1.7829	-3.9604	4.1095	13.2389	27.4643	749.8859	-50.786	283.7252	42.3955	758.242	-0.0592	0.0182	-0.0073	-0.0462	0.0165	0.9585
33.89	8.1832	27.6394	-2.7498	-9.6292	6.0989	32.7989	28.253	744.7464	-53.3139	280.7565	44.3925	752.152	-0.0592	0.0182	-0.0073	-0.0462	0.0165	0.9585
33.9035	11.0401	51.4747	-3.7851	-17.8232	8.1952	61.1069	28.5491	736.8723	-55.396	276.7409	46.1491	743.705	-0.0592	0.0182	-0.0073	-0.0462	0.0165	0.9585
33.917	13.4783	82.7461	-4.6671	-28.5636	9.9304	98.2588	28.3611	725.3104	-56.7923	271.3765	47.4231	731.8715	-0.0592	0.0182	-0.0073	-0.0462	0.0165	0.9585
33.9305	14.5126	119.6397	-5.0422	-41.2197	10.5485	142.1046	27.7083	709.2901	-57.2965	264.4178	48.0038	715.8242	-0.0592	0.0182	-0.0073	-0.0462	0.0165	0.9585
33.944	13.0235	157.6881	-4.3878	-54.2391	9.0733	187.3848	26.5948	688.4613	-56.8064	255.7633	47.783	695.1798	-0.0592	0.0182	-0.0073	-0.0462	0.0165	0.9585
33.9575	9.4323	190.934	-2.1957	-65.543	5.1136	227.0641	25.0654	663.2808	-55.3613	245.6031	46.779	670.3556	-0.0592	0.0182	-0.0073	-0.0462	0.0165	0.9585
33.971	5.2371	215.3948	1.0865	-73.7833	-0.24944	256.2625	23.2683	635.3579	-53.1954	234.5408	45.1771	642.9085	-0.0592	0.0182	-0.0073	-0.0462	0.0165	0.9585
33.9845	1.4996	231.2205	4.8659	-79.0304	-5.9616	274.9856	21.487	607.1226	-50.7188	223.4761	43.2894	615.1835	-0.0592	0.0182	-0.0073	-0.0462	0.0165	0.9585
33.998	-1.3986	241.1575	8.704	-82.2509	-11.3835	286.4648	20.0486	581.0302	-48.3199	213.3228	41.3823	589.5331	-0.0592	0.0182	-0.0073	-0.0462	0.0165	0.9585
34.0115	-3.5134	248.671	12.2915	-84.6589	-16.1802	294.8325	19.2114	558.8526	-46.1691	204.7484	39.5327	567.6455	-0.0592	0.0182	-0.0073	-0.0462	0.0165	0.9585
34.025	-5.1523	256.7127	15.3397	-87.2942	-20.1386	303.6023	19.1102	541.2496	-44.2389	198.0057	37.6669	550.1369	-0.0592	0.0182	-0.0073	-0.0462	0.0165	0.9585
34.0385	-6.6	267.088	17.6892	-90.7935	-23.1817	314.9208	19.7273	527.6877	-42.3798	192.8979	35.6369	536.4765	-0.0592	0.0182	-0.0073	-0.0462	0.0165	0.9585
34.052	-8.0107	280.5915	19.271	-95.4356	-25.3062	329.7176	20.9429	516.655	-40.4318	188.856	33.3176	525.1742	-0.0592	0.0182	-0.0073	-0.0462	0.0165	0.9585
34.0655	-9.4186	297.401	20.2631	-101.2614	-26.7267	348.2139	22.5899	506.024	-38.3018	185.0722	30.6657	514.129	-0.0592	0.0182	-0.0073	-0.0462	0.0165	0.9585
34.079	-10.6614	317.1234	20.8745	-108.1143	-27.6442	369.9048	24.4439	493.4095	-35.9497	180.6388	27.7113	500.9917	-0.0592	0.0182	-0.0073	-0.0462	0.0165	0.9585
34.0925	-11.6502	338.8605	21.5255	-115.6506	-28.4908	393.7288	26.222	476.5446	-33.3693	174.6945	24.5396	483.531	-0.0592	0.0182	-0.0073	-0.0462	0.0165	0.9585
34.106	-12.372	361.786	22.535	-123.5581	-29.6276	418.6578	27.6012	453.7335	-30.5611	166.5892	21.261	460.0942	-0.0592	0.0182	-0.0073	-0.0462	0.0165	0.9585
34.1195	-12.8675	385.8149	24.2195	-131.7782	-31.4177	444.533	28.2598	424.1293	-27.568	155.9827	18.0296	429.8863	-0.0592	0.0182	-0.0073	-0.0462	0.0165	0.9585
34.133	-13.1216	411.6644	26.6147	-140.5435	-33.9149	472.0926	27.9215	387.7885	-24.4488	142.8707	15.0043	392.9862	-0.0592	0.0182	-0.0073	-0.0462	0.0165	0.9585
34.1465	-13.0646	440.418	29.7745	-150.2184	-37.1567	502.5177	26.3724	345.6582	-21.3038	127.5796	12.3659	350.3537	-0.0592	0.0182	-0.0073	-0.0462	0.0165	0.9585
34.16	-12.6936	473.0014	33.5971	-161.1242	-41.0386	536.8363	23.5369	299.5116	-18.215	110.7465	10.2373	303.7687	-0.0592	0.0182	-0.0073	-0.0462	0.0165	0.9585
34.1735	-12.0605	509.7777	38.0792	-173.3861	-45.567	575.4547	19.5167	251.7245	-15.2717	93.243	8.6831	255.6048	-0.0592	0.0182	-0.0073	-0.0462	0.0165	0.9585
34.187	-11.282	550.3526	43.0908	-186.8745	-50.6383	617.9391	14.6298	204.9417	-12.5407	76.0494	7.6646	208.4833	-0.0592	0.0182	-0.0073	-0.0462	0.0165	0.9585
34.2005	-10.4622	593.5155	48.5144	-201.1871	-56.1445	662.9701	9.3866	161.5762	-10.0974	60.0653	7.0777	164.7767	-0.0592	0.0182	-0.0073	-0.0462	0.0165	0.9585
34.214	-9.682	637.3964	54.043	-215.7118	-61.7673	708.4856	4.314	123.3733	-7.9736	45.9466	6.7579	126.2079	-0.0592	0.0182	-0.0073	-0.0462	0.0165	0.9585
34.2275	-8.9654	679.7585	59.3743	-229.7131	-67.1595	752.0373	-0.13843	91.1773	-6.1917	34.0196	6.5596	93.6113	-0.0592	0.0182	-0.0073	-0.0462	0.0165	0.9585
34.241	-8.2389	718.3114	64.1195	-242.4439	-71.864	791.1179	-3.6582	65.036	-4.7259	24.3143	6.3407	67.0474	-0.0592	0.0182	-0.0073	-0.0462	0.0165	0.9585
34.2545	-7.4098	750.9977	68.0122	-253.2333	-75.5453	823.5117	-6.0642	44.448	-3.5393	16.6547	5.9958	46.039	-0.0592	0.0182	-0.0073	-0.0462	0.0165	0.9585
34.268	-6.3662	776.2259	70.8268	-261.5629	-77.9287	847.5124	-7.2851	28.6541	-2.5698	10.7676	5.4374	29.8472	-0.0592	0.0182	-0.0073	-0.0462	0.0165	0.9585
34.2815	-5.0355	793.0192	72.5379	-267.1067	-78.9652	862.1146	-7.3679	16.876	-1.7765	6.3689	4.6422	17.7227	-0.0592	0.0182	-0.0073	-0.0462	0.0165	0.9585
34.295	-3.3679	801.1418	73.1933	-269.7762	-78.7067	867.1424	-6.4903	8.4647	-1.1329	3.2219	3.6532	9.0282	-0.0592	0.0182	-0.0073	-0.0462	0.0165	0.9585
34.3085	-1.343	801.0889	72.9731	-269.7199	-77.3502	863.2194	-5.1032	2.9398	-0.64029	1.1491	2.6378	3.2939	-0.0592	0.0182	-0.0073	-0.0462	0.0165	0.9585
34.322	1.0186	794.037	72.0644	-267.3146	-75.1207	851.7009	-3.6408	-0.24981	-0.29445	-0.052445	1.7497	-0.024235	-0.0592	0.0182	-0.0073	-0.0462	0.0165	0.9585
34.3355	3.6593	781.7328	70.6744	-263.1324	-72.2733	834.5426	-2.3462	-1.7195	-0.075454	-0.61022	1.0546	-1.5496	-0.0592	0.0182	-0.0073	-0.0462	0.0165	0.9585
34.349	6.4997	766.3503	68.9955	-257.8964	-69.0556	814.1451	-1.3207	-2.0381	0.041171	-0.73565	0.56419	-1.871	-0.0592	0.0182	-0.0073	-0.0462	0.0165	0.9585
34.3625	9.4522	750.212	67.221	-252.3862	-65.715	793.0409	-0.59694	-1.6826	0.088666	-0.60488	0.2522	-1.4803	-0.0592	0.0182	-0.0073	-0.0462	0.0165	0.9585
34.376	12.4142	735.5015	65.5374	-247.3335	-62.4891	773.5791	-0.14675	-1.0152	0.080894	-0.35305	0.09089	-0.7575	-0.0592	0.0182	-0.0073	-0.0462	0.0165	0.9585
34.3895	15.2854	724.0305	64.0824	-243.3458	-59.5561	757.6792	0.083513	-0.27482	0.043421	-0.072723	0.036885	0.04483	-0.0592	0.0182	-0.0073	-0.0462	0.0165	0.9585
34.403	18.0029	717.0893	62.9636	-240.8549	-57.0449	746.6726	0.14227	0.3669	-0.013988	0.16874	0.068948	0.73356	-0.0592	0.0182	-0.0073	-0.0462	0.0165	0.9585
34.4165	20.537	715.3675	62.2042	-240.0896	-54.9875	741.2402	0.068958	0.79797	-0.068349	0.32764	0.15395	1.1785	-0.0592	0.0182	-0.0073	-0.0462	0.0165	0.9585
34.43	22.8751	718.8886	61.8144	-241.0496	-53.393	741.3684	-0.09489	0.94348	-0.12649	0.37346	0.28331	1.2957	-0.0592	0.0182	-0.0073	-0.0462	0.0165	0.9585
34.4435	25.0343	727.0645	61.7526	-243.525	-52.214	746.4126	-0.31738	0.73655	-0.184	0.28034	0.43677	0.9994	-0.0592	0.0182	-0.0073	-0.0462	0.0165	0.9585
34.457	27.0251	738.7684	61.9903	-247.118	-51.4164	755.2004	-0.57942	0.11236	-0.25362	0.022388	0.61193	0.20797	-0.0592	0.0182	-0.0073	-0.0462	0.0165	0.9585
34.4705	28.8587	752.4678	62.4808	-251.29	-50.9496	766.156	-0.83961	-0.97234	-0.32969	-0.41644	0.78827	-1.1309	-0.0592	0.0182	-0.0073	-0.0462	0.0165	0.9585
34.484	30.5325	766.4294	63.1874	-255.4318	-50.7741	777.5236	-1.0388	-2.5294	-0.41147	-1.0404	0.94393	-3.0312	-0.0592	0.0182	-0.0073	-0.0462	0.0165	0.9585
34.4975	32.0714	778.9337	64.0682	-258.9442	-50.8392	787.5732	-1.0997	-4.5069	-0.46779	-1.827	1.0123	-5.4359	-0.0592	0.0182	-0.0073	-0.0462	0.0165	0.9585
34.511	33.5162	788.456	65.0864	-261.2988	-51.0954	794.7922	-0.91293	-6.7171	-0.47183	-2.7016	0.91801	-8.1216	-0.0592	0.0182	-0.0073	-0.0462	0.0165	0.9585
34.5245	34.9083	793.755	66.2186	-262.0747	-51.5004	797.9533	-0.32756	-8.761	-0.37699	-3.5054	0.55109	-10.6073	-0.0592	0.0182	-0.0073	-0.0462	0.0165	0.9585
34.538	36.2782	794.0092	67.455	-261.008	-52.0327	796.2381	0.83004	-9.962	-0.13549	-3.9686	-0.21192	-12.0646	-0.0592	0.0182	-0.0073	-0.0462	0.0165	0.9585
34.5515	37.5986	788.9684	68.7605	-258.0463	-52.6677	789.4146	2.7318	-9.2848	0.31399	-3.6777	-1.5109	-11.2255	-0.0592	0.0182	-0.0073	-0.0462	0.0165	0.9585
34.565	38.8183	778.9835	70.0683	-253.3605	-53.3688	777.8591	5.519	-5.295	1.0132	-2.0591	-3.4516	-6.3508	-0.0592	0.0182	-0.0073	-0.0462	0.0165	0.9585
